<svg xmlns="http://www.w3.org/2000/svg" width="211.852" height="50.742" viewBox="0 0 211.852 50.742">
  <g id="Group_960" data-name="Group 960" transform="translate(-158.34 -7)">
    <g id="Group_1" data-name="Group 1" transform="translate(-20.404 -7)">
      <text id="Shopping" transform="translate(253.596 51)" font-size="32" font-family="SegoeUI, Segoe UI"><tspan x="0" y="0">Shopping</tspan></text>
    </g>
    <path id="Line_1" data-name="Line 1" d="M0,34.386A.386.386,0,0,1-.386,34V0A.386.386,0,0,1,0-.386.386.386,0,0,1,.386,0V34A.386.386,0,0,1,0,34.386Z" transform="translate(221.273 15.5)"/>
    <path id="Path_8" data-name="Path 8" d="M352,852.491l4.364-21.343L314.885,825.6l-3.322-2.215a3.145,3.145,0,1,0-3.035,2.457,3.338,3.338,0,0,0,.633-.127l3.9,2.6,6.472,25.534,1.969-.08-1.764,5.562c-.067,0-.13-.025-.2-.025a5.456,5.456,0,1,0,5,7.638H341.77a5.337,5.337,0,1,0-.254-3.272H324.881a5.428,5.428,0,0,0-2.059-3.237l2.156-6.816Z" transform="translate(-147.01 -812.485)"/>
  </g>
</svg>
