<svg xmlns="http://www.w3.org/2000/svg" width="38.138" height="28.603" viewBox="0 0 38.138 28.603">
  <path id="address-card-o" d="M19.069,18.678a2.913,2.913,0,0,1-.689,1.983,2.161,2.161,0,0,1-1.7.791H7.151a2.163,2.163,0,0,1-1.7-.791,2.906,2.906,0,0,1-.689-1.983,13.391,13.391,0,0,1,.167-2.188,8.729,8.729,0,0,1,.55-1.919A3.283,3.283,0,0,1,6.611,13.12a3.035,3.035,0,0,1,1.806-.531q.111.074.558.335t.7.4q.251.14.662.326a3.95,3.95,0,0,0,.8.27,3.694,3.694,0,0,0,1.564,0,3.95,3.95,0,0,0,.8-.27q.411-.186.661-.326t.7-.4q.448-.261.558-.335a3.031,3.031,0,0,1,1.806.531,3.271,3.271,0,0,1,1.126,1.452,8.863,8.863,0,0,1,.55,1.919,13.1,13.1,0,0,1,.167,2.188ZM16.145,8.994a4.072,4.072,0,0,1-1.238,2.989,4.072,4.072,0,0,1-2.989,1.238A4.072,4.072,0,0,1,8.93,11.983,4.072,4.072,0,0,1,7.691,8.994,4.072,4.072,0,0,1,8.93,6.006a4.072,4.072,0,0,1,2.989-1.238,4.072,4.072,0,0,1,2.989,1.238A4.072,4.072,0,0,1,16.145,8.994Zm17.226,8.287v1.192a.573.573,0,0,1-.6.6H22.049a.573.573,0,0,1-.6-.6V17.281a.573.573,0,0,1,.6-.6H32.775a.573.573,0,0,1,.6.6Zm0-4.693V13.63a.644.644,0,0,1-.2.475.656.656,0,0,1-.475.2H22.123a.644.644,0,0,1-.475-.2.652.652,0,0,1-.2-.475V12.589a.644.644,0,0,1,.2-.475.652.652,0,0,1,.475-.2H32.7a.644.644,0,0,1,.475.2.652.652,0,0,1,.2.475Zm0-4.841V8.938a.573.573,0,0,1-.6.6H22.049a.573.573,0,0,1-.6-.6V7.746a.573.573,0,0,1,.6-.6H32.775a.573.573,0,0,1,.6.6Zm2.384,17.877V2.98a.6.6,0,0,0-.6-.6H2.98a.6.6,0,0,0-.6.6V25.625a.6.6,0,0,0,.6.6H9.536V24.433a.573.573,0,0,1,.6-.6h1.192a.573.573,0,0,1,.6.6v1.788h14.3V24.433a.573.573,0,0,1,.6-.6h1.192a.573.573,0,0,1,.6.6v1.788h6.556a.6.6,0,0,0,.6-.6ZM38.138,2.979V25.624A2.988,2.988,0,0,1,35.159,28.6H2.98a2.869,2.869,0,0,1-2.1-.875A2.871,2.871,0,0,1,0,25.625V2.98A2.87,2.87,0,0,1,.875.875,2.87,2.87,0,0,1,2.98,0H35.159a2.869,2.869,0,0,1,2.1.875,2.869,2.869,0,0,1,.875,2.1Z" fill="#e11a2b"/>
</svg>
