<svg xmlns="http://www.w3.org/2000/svg" width="27.91" height="26.268" viewBox="0 0 27.91 26.268">
  <g id="cart" transform="translate(-4.32 -5.76)">
    <path id="Path_1772" data-name="Path 1772" d="M28.126,27.1H10.066a1.013,1.013,0,0,1-.657-.328.771.771,0,0,1-.082-.739l1.56-3.94L9.327,7.4H4.32V5.76h5.746a.873.873,0,0,1,.821.739l1.642,15.6a.74.74,0,0,1-.082.41L11.3,25.461H28.947L28.126,27.1Z" transform="translate(0 0)"/>
    <path id="Path_1773" data-name="Path 1773" d="M11.065,22.6l-.328-1.642,19.045-3.94V10.282H10.08V8.64H30.6a.776.776,0,0,1,.821.821V17.67a.8.8,0,0,1-.657.821l-19.7,4.1Z" transform="translate(0.807 0.404)"/>
    <path id="Path_1774" data-name="Path 1774" d="M26.324,29.607a3.284,3.284,0,1,1,3.284-3.284,3.293,3.293,0,0,1-3.284,3.284Zm0-4.925a1.642,1.642,0,1,0,1.642,1.642A1.647,1.647,0,0,0,26.324,24.682Z" transform="translate(2.623 2.421)"/>
    <path id="Path_1775" data-name="Path 1775" d="M9.044,29.607a3.284,3.284,0,1,1,3.284-3.284A3.293,3.293,0,0,1,9.044,29.607Zm0-4.925a1.642,1.642,0,1,0,1.642,1.642,1.647,1.647,0,0,0-1.642-1.642Z" transform="translate(0.202 2.421)"/>
  </g>
</svg>
