<svg xmlns="http://www.w3.org/2000/svg" width="6.075" height="5.952" viewBox="0 0 6.075 5.952">
  <g id="Group_1019" data-name="Group 1019" transform="translate(-201.607 -173.888)">
    <g id="Group_1018" data-name="Group 1018" transform="translate(201.607 173.888)">
      <path id="Path_1824" data-name="Path 1824" d="M194.8,215.785a.3.3,0,0,1-.211-.509l2.466-2.466-2.466-2.466a.3.3,0,0,1,.422-.422l2.888,2.888-2.888,2.888A.3.3,0,0,1,194.8,215.785Z" transform="translate(-191.823 -209.833)" fill="#fff"/>
      <path id="Path_1825" data-name="Path 1825" d="M194.8,215.785a.3.3,0,0,1-.211-.509l2.466-2.466-2.466-2.466a.3.3,0,0,1,.422-.422l2.888,2.888-2.888,2.888A.3.3,0,0,1,194.8,215.785Z" transform="translate(-194.5 -209.833)" fill="#fff"/>
    </g>
  </g>
</svg>
