<svg id="profile" xmlns="http://www.w3.org/2000/svg" width="35.733" height="35.733" viewBox="0 0 35.733 35.733">
  <path id="Path_1776" data-name="Path 1776" d="M24.994,14a6.5,6.5,0,1,1-6.5-6.5A6.5,6.5,0,0,1,24.994,14Zm-3.248,0A3.248,3.248,0,1,1,18.5,10.748,3.248,3.248,0,0,1,21.745,14Z" transform="translate(-0.63 -1.003)" fill="#e11a2b" fill-rule="evenodd"/>
  <path id="Path_1777" data-name="Path 1777" d="M19.367,1.5A17.867,17.867,0,1,0,37.233,19.367,17.866,17.866,0,0,0,19.367,1.5ZM4.748,19.367a14.56,14.56,0,0,0,3.1,9,14.621,14.621,0,0,1,23.144-.136A14.618,14.618,0,1,0,4.748,19.367ZM19.367,33.985a14.558,14.558,0,0,1-9.213-3.268,11.374,11.374,0,0,1,18.56-.11A14.56,14.56,0,0,1,19.367,33.985Z" transform="translate(-1.5 -1.5)" fill="#e11a2b" fill-rule="evenodd"/>
</svg>
