<svg id="password" xmlns="http://www.w3.org/2000/svg" width="30.176" height="30.134" viewBox="0 0 30.176 30.134">
  <path id="Path_1778" data-name="Path 1778" d="M22.7,2.25a9.686,9.686,0,0,0-9.686,9.686,9.546,9.546,0,0,0,.42,2.809L2.25,25.927v6.457H8.707L19.889,21.2a9.686,9.686,0,0,0,12.495-8.47,9.438,9.438,0,0,0-1.776-6.457A9.686,9.686,0,0,0,22.7,2.25Zm0,17.219a7.534,7.534,0,0,1-2.152-.322l-1.238-.377-.915.915L14.97,23.107l-1.517-1.486-1.517,1.517,1.485,1.485-1.711,1.711L10.225,24.85,8.707,26.368l1.485,1.485L7.814,30.232H4.4V26.82L14.949,16.241l.915-.915L15.552,14.3A7.684,7.684,0,0,1,19.211,5.22a7.533,7.533,0,0,1,11.02,6.457,7.2,7.2,0,0,1-1.173,4.3A7.533,7.533,0,0,1,22.7,19.469Z" transform="translate(-2.25 -2.25)" fill="#e11a2b"/>
  <path id="Path_1779" data-name="Path 1779" d="M26.8,11.152A2.152,2.152,0,1,1,24.652,9,2.152,2.152,0,0,1,26.8,11.152Z" transform="translate(-3.128 -2.543)" fill="#e11a2b"/>
</svg>
