<svg xmlns="http://www.w3.org/2000/svg" width="34.881" height="34.881" viewBox="0 0 34.881 34.881">
  <path id="layerorderdown" d="M33.553,19.041,20.677,25.48a7.16,7.16,0,0,1-3.236.681A7.16,7.16,0,0,1,14.2,25.48L1.328,19.041Q0,18.36,0,17.423T1.328,15.84L4.666,14.17l2.384,1.192L2.18,17.44l15.26,6.54L32.7,17.44,27.83,15.362l2.384-1.192,3.338,1.669q1.328.647,1.328,1.6T33.553,19.041Zm0-8.72L20.677,16.759a7.16,7.16,0,0,1-3.236.681,7.16,7.16,0,0,1-3.236-.681L1.328,10.321Q0,9.64,0,8.7T1.328,7.086L14.2.647A7.478,7.478,0,0,1,17.44,0a7.478,7.478,0,0,1,3.236.647L33.553,7.086q1.328.681,1.328,1.618T33.553,10.321ZM17.44,2.18,2.18,8.72l15.26,6.54L32.7,8.72ZM1.328,24.56l3.338-1.669L14.2,27.66a7.16,7.16,0,0,0,3.236.681,7.16,7.16,0,0,0,3.236-.681l9.538-4.769,3.338,1.669q1.328.647,1.328,1.6t-1.328,1.6L20.677,34.2a7.16,7.16,0,0,1-3.236.681A7.16,7.16,0,0,1,14.2,34.2L1.328,27.761Q0,27.114,0,26.161T1.328,24.56Z" fill="#e11a2b"/>
</svg>
