<svg id="Group_956" data-name="Group 956" xmlns="http://www.w3.org/2000/svg" width="22.333" height="22.371" viewBox="0 0 22.333 22.371">
  <path id="Path_410" data-name="Path 410" d="M135.53,85.356a6.474,6.474,0,0,0-6.654-6.464,6.54,6.54,0,0,0-6.278,6.38,6.464,6.464,0,0,0,2.807,5.412,11.206,11.206,0,0,0-7.486,9.615.882.882,0,0,0,.874.96h0a.865.865,0,0,0,.866-.786,9.45,9.45,0,0,1,9.405-8.652,6.474,6.474,0,0,0,6.467-6.467Zm-6.467,4.719a4.719,4.719,0,1,1,4.719-4.719,4.724,4.724,0,0,1-4.719,4.719Zm3.757,5.942h6.554a.874.874,0,0,1,.874.874h0a.874.874,0,0,1-.874.873h-6.554a.874.874,0,0,1-.874-.873h0A.874.874,0,0,1,132.821,96.016Zm7.428-2.621h0a.874.874,0,0,1-.874.873h-6.554a.874.874,0,0,1-.874-.873h0a.874.874,0,0,1,.874-.874h6.554A.874.874,0,0,1,140.249,93.4Zm-7.428,6.117h6.554a.874.874,0,0,1,.874.874h0a.874.874,0,0,1-.874.874h-6.554a.874.874,0,0,1-.874-.874h0A.874.874,0,0,1,132.821,99.512Zm-.874,0" transform="translate(-117.916 -78.889)"/>
</svg>
