<svg id="Group_3" data-name="Group 3" xmlns="http://www.w3.org/2000/svg" width="26.874" height="26.867" viewBox="0 0 26.874 26.867">
  <g id="Group_953" data-name="Group 953">
    <path id="Path_1769" data-name="Path 1769" d="M66.9,130.068a10.687,10.687,0,1,1,7.556-18.244h0A10.687,10.687,0,0,1,66.9,130.068Zm0-19.09a8.4,8.4,0,0,0-5.946,14.348,8.61,8.61,0,0,0,11.89,0A8.4,8.4,0,0,0,66.9,110.978Z" transform="translate(-56.211 -108.7)"/>
  </g>
  <g id="Group_954" data-name="Group 954" transform="translate(18.684 18.676)">
    <path id="Path_1770" data-name="Path 1770" d="M71.456,125.083a1.136,1.136,0,0,1-.8-.333l-5.912-5.912a1.14,1.14,0,1,1,1.612-1.612l5.912,5.912a1.139,1.139,0,0,1-.807,1.945Z" transform="translate(-64.406 -116.891)"/>
  </g>
</svg>
