<svg xmlns="http://www.w3.org/2000/svg" width="17.947" height="17.905" viewBox="0 0 17.947 17.905">
  <path id="time" d="M8.974.25A8.647,8.647,0,0,1,15.32,2.877,8.623,8.623,0,0,1,17.947,9.2a8.623,8.623,0,0,1-2.627,6.326,8.647,8.647,0,0,1-6.346,2.627,8.647,8.647,0,0,1-6.346-2.627A8.624,8.624,0,0,1,0,9.2,8.62,8.62,0,0,1,2.627,2.877,8.648,8.648,0,0,1,8.974.25Zm0,16.14a6.9,6.9,0,0,0,5.065-2.1A6.927,6.927,0,0,0,16.14,9.2a6.927,6.927,0,0,0-2.1-5.086,6.9,6.9,0,0,0-5.065-2.1,6.9,6.9,0,0,0-5.065,2.1A6.927,6.927,0,0,0,1.807,9.2a6.927,6.927,0,0,0,2.1,5.085A6.9,6.9,0,0,0,8.974,16.39ZM9.415,4.705V9.412l4.035,2.4-.672,1.135L8.07,10.085V4.705H9.415Z" transform="translate(0 -0.25)" fill="#e11a2b"/>
</svg>
