<svg xmlns="http://www.w3.org/2000/svg" width="53.306" height="25.27" viewBox="0 0 53.306 25.27">
  <g id="Group_1111" data-name="Group 1111" transform="translate(-514 -801)">
    <g id="Group_1110" data-name="Group 1110">
      <g id="Group_1109" data-name="Group 1109">
        <path id="Path_1784" data-name="Path 1784" d="M255.507,624.759H244.965a4.229,4.229,0,0,0-1.692-3.671,4.655,4.655,0,0,0-2.271-.729c-2.166-.043-3.646,1.565-4.186,4.4-2.009,0-4.04.042-6.068-.021a1.673,1.673,0,0,1-1.357-1.878c.012-.524.111-1.045.183-1.67-.521,0-.986-.015-1.449,0-.567.022-1.057-.128-1.08-.763-.025-.7.5-.865,1.092-.865q3.862-.007,7.725-.017c.283,0,.624.085.833-.042.305-.185.712-.529.709-.8s-.425-.64-.74-.758a3.631,3.631,0,0,0-1.213-.042l-11.211,0c-.282,0-.63.092-.832-.038a4.508,4.508,0,0,1-.8-.852c.275-.244.525-.652.83-.7a14.824,14.824,0,0,1,2.162-.038c2.45,0,4.9-.009,7.348,0,.608,0,1.218-.065,1.239-.819.023-.836-.626-.873-1.265-.866-1.1.013-2.2.064-3.294-.032a1.3,1.3,0,0,1-.951-.739c-.141-.625.388-.85.954-.852,2.449-.013,4.9-.016,7.348-.023.283,0,.615.088.836-.029.317-.169.806-.54.767-.735-.066-.332-.45-.646-.77-.866-.171-.118-.488-.029-.739-.03h-7.16c-.251,0-.5,0-.754,0-.589,0-1.115-.124-1.086-.852.027-.662.524-.765,1.078-.763,2.293.007,4.585,0,6.877,0,.942,0,1.884,0,2.826,0,.594,0,1.117-.159,1.115-.851s-.518-.841-1.118-.84q-6.453,0-12.906-.006c-.252,0-.55.085-.744-.02-.365-.2-.9-.47-.952-.78-.1-.591.4-.84.986-.838,1.162,0,2.324,0,3.486,0h1.6c1.849,0,1.844,0,2.331-1.761a1.7,1.7,0,0,1,1.753-1.412q11.446,0,22.892.009c1.267,0,1.978.949,1.747,2.345-.422,2.539-.91,5.068-1.378,7.6C256.958,616.97,256.238,620.824,255.507,624.759Zm-14.215-14.72c.4-.585.786-.912.781-1.232,0-.276-.5-.8-.7-.761a1.186,1.186,0,0,0-.825.754C240.5,609.088,240.911,609.446,241.292,610.039Z" transform="translate(293.565 197.841)" fill="#272525"/>
        <path id="Path_1785" data-name="Path 1785" d="M311.276,628.145c-.273-3.175-1.506-4.712-3.742-4.776-2.385-.068-3.917,1.556-4.413,4.725h-3.587c.641-3.48,1.27-6.906,1.9-10.332.479-2.593.984-5.183,1.43-7.782.107-.62.336-.828.968-.813,1.758.041,3.517.032,5.276.005a2.515,2.515,0,0,1,2.243,1.117c1.658,2.29,3.391,4.525,5.006,6.844a3.052,3.052,0,0,1,.466,1.916c-.257,2.4-.639,4.793-.988,7.186a2,2,0,0,1-2.163,1.906C312.893,628.157,312.11,628.145,311.276,628.145Zm1.594-11.885c-1.043-1.584-1.956-2.993-2.9-4.379a.8.8,0,0,0-.582-.207c-1.632-.015-3.264-.022-4.9.011-.222,0-.6.212-.634.379-.27,1.372-.476,2.757-.711,4.2Z" transform="translate(250.466 194.474)" fill="#272525"/>
        <path id="Path_1786" data-name="Path 1786" d="M316.012,646.013a3.981,3.981,0,0,1-3.731,4.086,3.53,3.53,0,0,1-3.455-3.7,3.941,3.941,0,0,1,3.786-4.014A3.454,3.454,0,0,1,316.012,646.013Zm-1.716.08a1.8,1.8,0,0,0-1.845-1.844,2.052,2.052,0,0,0-1.907,2.07,1.877,1.877,0,0,0,1.8,1.914A2.094,2.094,0,0,0,314.3,646.093Z" transform="translate(245.259 175.866)" fill="#272525"/>
        <path id="Path_1787" data-name="Path 1787" d="M263.228,646.755a3.946,3.946,0,0,1-3.732,4.062,3.446,3.446,0,0,1-3.451-3.578,3.949,3.949,0,0,1,3.77-4.121A3.5,3.5,0,0,1,263.228,646.755Zm-3.517-1.776a2.078,2.078,0,0,0-1.954,2.129,1.855,1.855,0,0,0,1.746,1.87,2.086,2.086,0,0,0,2.005-2.083A1.856,1.856,0,0,0,259.711,644.978Z" transform="translate(274.833 175.453)" fill="#272525"/>
      </g>
      <path id="Path_1788" data-name="Path 1788" d="M218.449,634.93c-.38-.469-.817-.777-.785-1.025.041-.32.456-.593.71-.886.281.271.723.508.792.826C219.219,634.087,218.8,634.431,218.449,634.93Z" transform="translate(296.338 181.11)" fill="#272525"/>
    </g>
    <path id="Path_1789" data-name="Path 1789" d="M223.227,611.3c-.493.363-.826.786-1.062.738-.318-.065-.562-.493-.838-.766.283-.267.538-.692.858-.749C222.421,610.481,222.743,610.919,223.227,611.3Z" transform="translate(294.284 193.716)" fill="#272525"/>
  </g>
</svg>
