<svg xmlns="http://www.w3.org/2000/svg" width="44.349" height="25.272" viewBox="0 0 44.349 25.272">
  <g id="Group_1108" data-name="Group 1108" transform="translate(-522 -627)">
    <path id="Path_1790" data-name="Path 1790" d="M265.713,687.374c-.422,2.537-.906,5.065-1.376,7.6-.712,3.856-1.433,7.708-2.163,11.643h-10.54c-.079-1.451-.4-2.854-1.693-3.672a4.708,4.708,0,0,0-2.273-.73c-2.163-.04-3.645,1.565-4.186,4.406-2.009,0-4.037.04-6.068-.022a1.672,1.672,0,0,1-1.354-1.877l.589-3.3.295-1.658.29-1.631.3-1.662.295-1.649.3-1.68.286-1.618.3-1.693.607-3.4a1.705,1.705,0,0,1,1.754-1.416q11.443,0,22.891.009C265.234,685.03,265.946,685.976,265.713,687.374Z" transform="translate(285.941 -58.015)" fill="#272525"/>
    <path id="Path_1791" data-name="Path 1791" d="M314.388,698.992c-1.618-2.317-3.351-4.551-5.008-6.842a2.52,2.52,0,0,0-2.242-1.117c-1.759.026-3.518.035-5.276,0-.633-.018-.862.189-.967.813-.449,2.6-.95,5.189-1.429,7.778-.633,3.425-1.262,6.855-1.9,10.333h3.584c.5-3.17,2.031-4.793,4.415-4.727,2.238.066,3.469,1.6,3.742,4.78.835,0,1.618.009,2.4,0a2,2,0,0,0,2.163-1.908c.347-2.392.73-4.78.989-7.185A3.078,3.078,0,0,0,314.388,698.992Zm-13.218-.871c.233-1.442.44-2.827.712-4.2.031-.167.409-.374.633-.378,1.631-.031,3.263-.026,4.894-.013a.813.813,0,0,1,.585.211c.945,1.385,1.856,2.792,2.9,4.379Z" transform="translate(251.482 -61.384)" fill="#272525"/>
    <path id="Path_1792" data-name="Path 1792" d="M310.636,724.24a3.939,3.939,0,0,0-3.786,4.014,3.528,3.528,0,0,0,3.456,3.7,3.974,3.974,0,0,0,3.729-4.085A3.453,3.453,0,0,0,310.636,724.24Zm-.264,5.852a1.877,1.877,0,0,1-1.8-1.913,2.05,2.05,0,0,1,1.908-2.071,1.8,1.8,0,0,1,1.842,1.842A2.1,2.1,0,0,1,310.372,730.092Z" transform="translate(246.278 -79.992)" fill="#272525"/>
    <path id="Path_1793" data-name="Path 1793" d="M257.838,724.97a3.953,3.953,0,0,0-3.768,4.124,3.447,3.447,0,0,0,3.452,3.579,3.951,3.951,0,0,0,3.733-4.063A3.5,3.5,0,0,0,257.838,724.97Zm-.312,5.861a1.857,1.857,0,0,1-1.746-1.869,2.076,2.076,0,0,1,1.957-2.128,1.859,1.859,0,0,1,1.8,1.913A2.089,2.089,0,0,1,257.525,730.831Z" transform="translate(275.851 -80.402)" fill="#272525"/>
  </g>
</svg>
