<svg id="Group_979" data-name="Group 979" xmlns="http://www.w3.org/2000/svg" width="34.106" height="34.105" viewBox="0 0 34.106 34.105">
  <path id="Path_1816" data-name="Path 1816" d="M283.4,114.22h0a17.053,17.053,0,0,1-17.053-17.053h0A17.053,17.053,0,0,1,283.4,80.114h0a17.053,17.053,0,0,1,17.053,17.053h0A17.053,17.053,0,0,1,283.4,114.22Z" transform="translate(-266.345 -80.114)" fill="#3e5c9a"/>
  <path id="Path_1817" data-name="Path 1817" d="M294.362,114.915h4.151V104.52h2.9l.309-3.481h-3.2V99.057c0-.821.165-1.145.958-1.145h2.247V94.3h-2.874c-3.089,0-4.482,1.361-4.482,3.965v2.775H292.2v3.524h2.159Z" transform="translate(-279.908 -87.555)" fill="#fff"/>
</svg>
