<svg id="Group_977" data-name="Group 977" xmlns="http://www.w3.org/2000/svg" width="34.105" height="34.105" viewBox="0 0 34.105 34.105">
  <path id="Path_1808" data-name="Path 1808" d="M179.553,114.22h0A17.053,17.053,0,0,1,162.5,97.167h0a17.053,17.053,0,0,1,17.053-17.053h0a17.053,17.053,0,0,1,17.053,17.053h0A17.053,17.053,0,0,1,179.553,114.22Z" transform="translate(-162.5 -80.114)" fill="#df4b38"/>
  <g id="Group_989" data-name="Group 989" transform="translate(5.019 9.644)">
    <path id="Path_1809" data-name="Path 1809" d="M187.22,107.361h-6.889l.008,1.973h4.646a4.56,4.56,0,0,1-4.521,3.876,5.405,5.405,0,1,1,3.675-9.368l1.524-1.314a7.408,7.408,0,1,0-5.2,12.685c3.929,0,6.769-3,6.769-7.089Z" transform="translate(-173.055 -100.397)" fill="#fff"/>
    <path id="Path_1810" data-name="Path 1810" d="M215.4,112.077h-2.844v-2.844h-1.814v2.844h-2.844v1.814h2.844v2.844h1.814v-2.844H215.4Z" transform="translate(-191.328 -105.032)" fill="#fff"/>
  </g>
</svg>
