<svg xmlns="http://www.w3.org/2000/svg" xmlns:xlink="http://www.w3.org/1999/xlink" width="34.106" height="34.105" viewBox="0 0 34.106 34.105">
  <defs>
    <radialGradient id="radial-gradient" cx="-0.025" cy="1.003" r="1.849" gradientTransform="translate(0)" gradientUnits="objectBoundingBox">
      <stop offset="0" stop-color="#f5ec53"/>
      <stop offset="0.241" stop-color="#e48244"/>
      <stop offset="0.397" stop-color="#d05667"/>
      <stop offset="0.489" stop-color="#c84278"/>
      <stop offset="1" stop-color="#192cfa"/>
    </radialGradient>
  </defs>
  <g id="Group_980" data-name="Group 980" transform="translate(0)">
    <path id="Path_1818" data-name="Path 1818" d="M388.431,114.22h0a17.053,17.053,0,0,1-17.053-17.053h0a17.053,17.053,0,0,1,17.053-17.053h0a17.053,17.053,0,0,1,17.053,17.053h0A17.053,17.053,0,0,1,388.431,114.22Z" transform="translate(-371.378 -80.114)" fill="url(#radial-gradient)"/>
    <g id="Group_996" data-name="Group 996" transform="translate(7.702 7.703)">
      <path id="Path_1819" data-name="Path 1819" d="M396.927,98c2.5,0,2.793.01,3.778.054a5.174,5.174,0,0,1,1.736.322,3.1,3.1,0,0,1,1.774,1.774,5.173,5.173,0,0,1,.322,1.736c.045.986.054,1.281.054,3.778s-.009,2.792-.054,3.778a5.167,5.167,0,0,1-.322,1.736,3.1,3.1,0,0,1-1.774,1.775,5.165,5.165,0,0,1-1.736.322c-.986.045-1.281.055-3.778.055s-2.792-.01-3.778-.055a5.159,5.159,0,0,1-1.736-.322,3.1,3.1,0,0,1-1.775-1.775,5.184,5.184,0,0,1-.322-1.736c-.045-.986-.054-1.281-.054-3.778s.009-2.793.054-3.778a5.19,5.19,0,0,1,.322-1.736,3.1,3.1,0,0,1,1.775-1.774,5.168,5.168,0,0,1,1.736-.322c.986-.045,1.282-.054,3.778-.054m0-1.685c-2.539,0-2.858.011-3.855.056a6.867,6.867,0,0,0-2.27.435,4.781,4.781,0,0,0-2.735,2.735,6.857,6.857,0,0,0-.435,2.27c-.046,1-.057,1.316-.057,3.855s.011,2.858.057,3.855a6.86,6.86,0,0,0,.435,2.27,4.781,4.781,0,0,0,2.735,2.735,6.88,6.88,0,0,0,2.27.435c1,.045,1.316.056,3.855.056s2.858-.011,3.855-.056a6.882,6.882,0,0,0,2.27-.435,4.78,4.78,0,0,0,2.735-2.735,6.873,6.873,0,0,0,.435-2.27c.045-1,.056-1.316.056-3.855s-.011-2.858-.056-3.855a6.87,6.87,0,0,0-.435-2.27,4.78,4.78,0,0,0-2.735-2.735,6.87,6.87,0,0,0-2.27-.435c-1-.045-1.316-.056-3.855-.056" transform="translate(-387.577 -96.314)" fill="#fff"/>
      <path id="Path_1820" data-name="Path 1820" d="M401.945,105.88a4.8,4.8,0,1,0,4.8,4.8,4.8,4.8,0,0,0-4.8-4.8m0,7.918a3.117,3.117,0,1,1,3.117-3.117,3.117,3.117,0,0,1-3.117,3.117" transform="translate(-392.595 -101.331)" fill="#fff"/>
      <path id="Path_1821" data-name="Path 1821" d="M417.622,104.244a1.122,1.122,0,1,1-1.122-1.122,1.122,1.122,0,0,1,1.122,1.122" transform="translate(-402.159 -99.885)" fill="#fff"/>
    </g>
  </g>
</svg>
