<svg id="Group_978" data-name="Group 978" xmlns="http://www.w3.org/2000/svg" width="34.105" height="34.105" viewBox="0 0 34.105 34.105">
  <path id="Path_1811" data-name="Path 1811" d="M179.553,215.843h0A17.053,17.053,0,0,1,162.5,198.79h0a17.053,17.053,0,0,1,17.053-17.053h0a17.053,17.053,0,0,1,17.053,17.053h0A17.053,17.053,0,0,1,179.553,215.843Z" transform="translate(-162.5 -181.737)" fill="#117bb8"/>
  <g id="Group_992" data-name="Group 992" transform="translate(8.981 7.551)">
    <g id="Group_991" data-name="Group 991">
      <rect id="Rectangle_51" data-name="Rectangle 51" width="3.529" height="11.401" transform="translate(0.339 5.701)" fill="#fff"/>
      <path id="Path_1812" data-name="Path 1812" d="M183.475,201.825a2.1,2.1,0,1,0-2.087-2.1A2.1,2.1,0,0,0,183.475,201.825Z" transform="translate(-181.388 -197.617)" fill="#fff"/>
    </g>
    <path id="Path_1813" data-name="Path 1813" d="M197.654,214.638c0-1.6.738-2.558,2.151-2.558,1.3,0,1.921.917,1.921,2.558v5.985h3.513V213.4c0-3.054-1.731-4.53-4.149-4.53a3.975,3.975,0,0,0-3.436,1.884v-1.536h-3.385v11.4h3.385Z" transform="translate(-188.144 -203.521)" fill="#fff"/>
  </g>
</svg>
