<svg id="Group_981" data-name="Group 981" xmlns="http://www.w3.org/2000/svg" width="34.106" height="34.105" viewBox="0 0 34.106 34.105">
  <path id="Path_1822" data-name="Path 1822" d="M388.431,215.843h0a17.053,17.053,0,0,1-17.053-17.053h0a17.053,17.053,0,0,1,17.053-17.053h0a17.053,17.053,0,0,1,17.053,17.053h0A17.053,17.053,0,0,1,388.431,215.843Z" transform="translate(-371.378 -181.737)" fill="#cd2129"/>
  <path id="Path_1823" data-name="Path 1823" d="M393.137,208.014a.4.4,0,0,0,.582-.291c.053-.2.181-.719.237-.934a.562.562,0,0,0-.168-.648,3.36,3.36,0,0,1-.767-2.282,5.509,5.509,0,0,1,5.727-5.571c3.124,0,4.84,1.909,4.84,4.459,0,3.354-1.484,6.185-3.688,6.185a1.8,1.8,0,0,1-1.836-2.24,24.888,24.888,0,0,0,1.027-4.129,1.558,1.558,0,0,0-1.569-1.746c-1.244,0-2.244,1.287-2.244,3.011a4.474,4.474,0,0,0,.371,1.841s-1.273,5.395-1.5,6.339a13.027,13.027,0,0,0-.035,4.421.155.155,0,0,0,.276.067,12.4,12.4,0,0,0,2.1-3.807c.143-.517.819-3.2.819-3.2a3.333,3.333,0,0,0,2.841,1.449c3.74,0,6.277-3.409,6.277-7.973,0-3.451-2.922-6.664-7.364-6.664-5.527,0-8.314,3.963-8.314,7.267C390.754,205.572,391.512,207.352,393.137,208.014Z" transform="translate(-381.541 -189.377)" fill="#fff"/>
</svg>
