<svg id="Group_976" data-name="Group 976" xmlns="http://www.w3.org/2000/svg" width="34.105" height="34.105" viewBox="0 0 34.105 34.105">
  <path id="Path_1806" data-name="Path 1806" d="M74.52,114.22h0A17.053,17.053,0,0,1,57.467,97.167h0A17.053,17.053,0,0,1,74.52,80.114h0A17.053,17.053,0,0,1,91.573,97.167h0A17.053,17.053,0,0,1,74.52,114.22Z" transform="translate(-57.467 -80.114)" fill="#29a9e1"/>
  <path id="Path_1807" data-name="Path 1807" d="M74.222,113.541a10.6,10.6,0,0,0,16.311-9.415,7.55,7.55,0,0,0,1.86-1.93,7.428,7.428,0,0,1-2.141.587,3.735,3.735,0,0,0,1.639-2.062,7.478,7.478,0,0,1-2.367.905,3.731,3.731,0,0,0-6.353,3.4,10.581,10.581,0,0,1-7.684-3.9,3.733,3.733,0,0,0,1.154,4.978,3.724,3.724,0,0,1-1.689-.466,3.732,3.732,0,0,0,2.99,3.7,3.733,3.733,0,0,1-1.683.064A3.729,3.729,0,0,0,79.742,112,7.492,7.492,0,0,1,74.222,113.541Z" transform="translate(-66.255 -90.78)" fill="#fff"/>
</svg>
